<?xml version="1.0" encoding="UTF-8"?>
<svg id="Camada_1" data-name="Camada 1" xmlns="http://www.w3.org/2000/svg" viewBox="0 0 127.71 155.46">
  <path d="M127.71,0v17.79c-.83,6.68-6.06,12.05-12.75,13.31H49.66c-.55-.05-1.08-.08-1.63-.08s-1.11.03-1.63.08c-8.02.81-14.28,7.44-14.28,15.52,0,8.6,7.11,15.58,15.91,15.58h32.51c7.64.24,13.94,5.63,15.24,12.69v18.41h-47.34c-.19-.03-.36-.03-.55-.03s-.36,0-.55.03c-8.08.24-14.61,6.31-15.41,14.01-.06.51-.08,1.05-.08,1.59s.03,1.08.08,1.59v31.64c-.86,6.76-6.14,12.15-12.95,13.34H0V15.55C0,6.98,7.17,0,15.96,0h111.75Z"/>
</svg>